<?xml version="1.0" encoding="utf-8"?>
<!-- Generator: Adobe Illustrator 23.0.3, SVG Export Plug-In . SVG Version: 6.00 Build 0)  -->
<svg version="1.1" xmlns="http://www.w3.org/2000/svg" xmlns:xlink="http://www.w3.org/1999/xlink" x="0px" y="0px"
	 viewBox="0 0 627.18 348.57" style="enable-background:new 0 0 627.18 348.57;" xml:space="preserve">
<style type="text/css">
	.st0{fill:#26397A;}
	.st1{fill:#FFFFFF;}
	.st2{fill:#F4E5CC;}
</style>
<g id="Logo">
	<g>
		<path class="st0" d="M248.92,187.31c12.15,0,23.49,0,35.47,0c0,15.77-0.02,31.17,0.01,46.57c0.01,4.61,0.02,9.23,0.26,13.83
			c0.78,14.73,9.57,23.92,24.27,24.63c10,0.48,20.06,0.38,30.08-0.01c11.75-0.46,20.55-8.46,21.6-21.01
			c1.12-13.35,0.66-26.83,0.87-40.26c0.05-3.37,0.01-6.74,0.01-10.32c11.87,1.76,23.1,3.43,35.18,5.23c0,3.49,0,7.43,0,11.37
			c0.01,11.83-0.2,23.67,0.1,35.5c0.32,12.64,8.17,19.49,21.71,19.57c11.92,0.07,20.11-7.66,20.3-19.76
			c0.24-15.63,0.06-31.27,0.06-47.04c12-2.64,23.64-5.2,35.99-7.91c0,7.37-0.01,14.68,0,21.99c0.01,11.03-0.2,22.07,0.11,33.09
			c0.28,10.02,6.46,17.09,15.97,19.17c10.28,2.25,20.01-0.91,23.31-8.92c2.3-5.59,3.46-11.99,3.58-18.05
			c0.41-21.25,0.05-42.52,0.28-63.78c0.03-2.41,1.25-5.5,3-7.09c10.48-9.51,21.28-18.67,31.89-27.88c0,0.05,0.16,1.11,0.16,2.17
			c0,34.3,0.11,68.6-0.1,102.89c-0.08,13.42-2.81,26.3-10.91,37.45c-9.04,12.45-21.58,18.79-36.72,20.1
			c-17.81,1.53-34.48-1.04-48.1-14.87c-13.29,13.43-29.82,15.08-47.37,14.69c-31.07-0.7-62.17-1.02-93.24-0.67
			c-19.41,0.21-36.33-3.29-46.24-23.5c-7.1,13.28-17.64,21.04-31.24,22.1c-16.1,1.25-32.44,1.25-48.55,0.11
			c-10.32-0.74-18.48-7.19-23.29-16.88c-0.52,0.31-1.07,0.44-1.13,0.69c-3.27,13.48-7.81,17.2-21.72,17.24
			c-31.09,0.09-62.18,0.07-93.27,0.07c-1.74,0-3.49-0.22-5.49-0.35c0-11.7,0-23.03,0-34.95c31.89,0,63.48,0,95.94,0
			c-0.63-18.65,2.5-37.01-5.1-54.35c-6.2-14.15-18.51-20.03-32.95-19.93c-14.08,0.09-28.15,2.33-42.82,3.68
			c-0.36-8.58-0.87-18.7-1.11-28.82c-0.03-1.19,1.21-3.25,2.21-3.51c25.67-6.48,51.4-8.96,76.67,1.44
			c21.9,9.01,32.58,26.95,36.5,49.29c1.9,10.8,1.74,21.97,3.73,32.74c2.32,12.6,11,19.03,23.9,19.32c6.42,0.14,12.84,0.1,19.25,0.09
			c16.76-0.01,26.34-8.85,26.77-25.7c0.45-17.44,0.14-34.9,0.16-52.35C248.92,192.25,248.92,190.08,248.92,187.31z"/>
		<path class="st0" d="M361.66,178.43c0-3.25,0-5.63,0-8.74c45.12,5.01,85.69-5.13,119.83-35.78
			c18.83-16.91,31.83-37.71,39.91-62.44c-8.79-1.17-17.01-2.26-26.49-3.52c20.4-16,39.84-31.25,59.89-46.98
			c8.14,24.84,16,48.82,24.28,74.1c-8.43-4.44-15.6-8.21-23.3-12.27c-17.3,44.66-46.85,77.27-92.34,93.39
			C430.01,188.04,395.95,187.36,361.66,178.43z"/>
		<path class="st0" d="M266.21,153.89c-17.34-0.11-17.34-0.11-17.31-17.28c0.01-4,0.16-8.02-0.03-12.01
			c-0.2-4.18,1.85-5.86,5.73-5.87c8.01-0.01,16.02,0.02,24.03-0.01c3.69-0.01,5.61,1.73,5.63,5.44c0.04,8.21,0,16.42,0.1,24.63
			c0.05,3.89-1.8,5.3-5.54,5.15C274.62,153.76,270.41,153.89,266.21,153.89z"/>
	</g>
</g>
<g id="Colors">
	<g>
		<rect x="-455.09" y="-123.93" class="st0" width="282.86" height="151.43"/>
		<g>
			<path class="st1" d="M-354.39-63.94c0.59,0,1.08-0.1,1.46-0.29c0.38-0.19,0.69-0.45,0.93-0.78c0.24-0.33,0.44-0.71,0.58-1.15
				c0.15-0.44,0.28-0.9,0.39-1.4h2.06v28.77h-3.06v-21.94h-2.36V-63.94z"/>
			<path class="st1" d="M-336.3-67.56v3.95l-4.5,24.82h-3.06l4.48-24.66h-6.09v-4.11H-336.3z"/>
			<path class="st1" d="M-328.38-60.49c0-1.29-0.14-2.16-0.43-2.61c-0.29-0.45-0.67-0.68-1.15-0.68c-0.48,0-0.87,0.21-1.15,0.64
				c-0.29,0.42-0.43,1.16-0.43,2.2v1.85h-2.89v-1.56c0-2.33,0.38-4.12,1.15-5.36c0.77-1.25,1.9-1.87,3.4-1.87s2.64,0.62,3.41,1.87
				c0.77,1.25,1.15,3.03,1.15,5.36v0.74c0,3.07-0.71,5.04-2.14,5.92c0.78,0.49,1.33,1.25,1.65,2.28s0.49,2.28,0.49,3.76v2.26
				c0,2.33-0.38,4.12-1.15,5.36c-0.77,1.25-1.9,1.87-3.41,1.87s-2.64-0.62-3.4-1.87c-0.77-1.25-1.15-3.03-1.15-5.36v-2.38h2.89v2.67
				c0,1.04,0.14,1.77,0.43,2.2c0.29,0.42,0.67,0.64,1.15,0.64c0.48,0,0.87-0.22,1.15-0.66c0.29-0.44,0.43-1.3,0.43-2.59v-2.26
				c0-1.34-0.16-2.29-0.47-2.84c-0.32-0.55-0.82-0.82-1.53-0.82h-1.03v-4.11h1.2c0.57,0,1.02-0.22,1.35-0.66
				c0.32-0.44,0.49-1.23,0.49-2.38V-60.49z"/>
			<path class="st1" d="M-320.51-48.08v2.67c0,1.04,0.14,1.77,0.43,2.18c0.29,0.41,0.67,0.62,1.15,0.62c0.48,0,0.87-0.21,1.15-0.62
				c0.29-0.41,0.43-1.14,0.43-2.18v-6.33c0-1.04-0.14-1.77-0.43-2.2c-0.29-0.42-0.67-0.64-1.15-0.64c-0.48,0-0.87,0.21-1.15,0.64
				c-0.29,0.42-0.43,1.16-0.43,2.2v0.86h-2.89l0.56-16.68h8.06v4.11h-5.31l-0.25,6.86c0.57-1.4,1.46-2.1,2.67-2.1
				c1.13,0,1.98,0.56,2.54,1.69c0.56,1.12,0.85,2.75,0.85,4.89v6.41c0,2.33-0.38,4.12-1.15,5.36c-0.77,1.25-1.9,1.87-3.41,1.87
				s-2.64-0.62-3.4-1.87c-0.77-1.25-1.15-3.03-1.15-5.36v-2.38H-320.51z"/>
			<path class="st1" d="M-303.28-67.56v3.95l-4.5,24.82h-3.06l4.48-24.66h-6.09v-4.11H-303.28z"/>
			<path class="st1" d="M-301.25-67.56h4.84c1.54,0,2.68,0.6,3.43,1.81s1.13,2.97,1.13,5.3v14.55c0,2.33-0.38,4.1-1.13,5.3
				c-0.75,1.21-1.9,1.81-3.43,1.81h-4.84V-67.56z M-298.19-63.45v20.55h1.72c0.48,0,0.86-0.21,1.14-0.62
				c0.28-0.41,0.42-1.14,0.42-2.18v-14.96c0-1.04-0.14-1.77-0.42-2.18c-0.28-0.41-0.66-0.62-1.14-0.62H-298.19z"/>
		</g>
	</g>
	<g>
		<rect x="-455.09" y="54.63" class="st2" width="282.86" height="151.43"/>
		<g>
			<path d="M-353.23,123.79h3.95v4.11h-3.95v11.88h-3.06v-28.77h8.09v4.11h-5.03V123.79z"/>
			<path d="M-343.97,130.49v2.67c0,1.04,0.14,1.77,0.43,2.18c0.29,0.41,0.67,0.62,1.15,0.62c0.48,0,0.87-0.21,1.15-0.62
				c0.29-0.41,0.43-1.14,0.43-2.18v-6.33c0-1.04-0.14-1.77-0.43-2.2c-0.29-0.42-0.67-0.64-1.15-0.64c-0.48,0-0.87,0.21-1.15,0.64
				c-0.29,0.42-0.43,1.16-0.43,2.2v0.86h-2.89l0.56-16.68h8.06v4.11h-5.31l-0.25,6.86c0.57-1.4,1.46-2.1,2.67-2.1
				c1.13,0,1.98,0.56,2.54,1.69c0.56,1.12,0.85,2.75,0.85,4.89v6.41c0,2.33-0.38,4.12-1.15,5.36c-0.77,1.25-1.9,1.87-3.41,1.87
				s-2.64-0.62-3.4-1.87c-0.77-1.25-1.15-3.03-1.15-5.36v-2.38H-343.97z"/>
			<path d="M-332.66,123.13h4.2v4.11h-4.2v8.42h5.28v4.11h-8.34v-28.77h8.34v4.11h-5.28V123.13z"/>
			<path d="M-322.73,130.49v2.67c0,1.04,0.14,1.77,0.43,2.18c0.29,0.41,0.67,0.62,1.15,0.62c0.48,0,0.87-0.21,1.15-0.62
				c0.29-0.41,0.43-1.14,0.43-2.18v-6.33c0-1.04-0.14-1.77-0.43-2.2c-0.29-0.42-0.67-0.64-1.15-0.64c-0.48,0-0.87,0.21-1.15,0.64
				c-0.29,0.42-0.43,1.16-0.43,2.2v0.86h-2.89l0.56-16.68h8.06v4.11h-5.31l-0.25,6.86c0.57-1.4,1.46-2.1,2.67-2.1
				c1.13,0,1.98,0.56,2.54,1.69c0.56,1.12,0.85,2.75,0.85,4.89v6.41c0,2.33-0.38,4.12-1.15,5.36c-0.77,1.25-1.9,1.87-3.41,1.87
				s-2.64-0.62-3.4-1.87c-0.77-1.25-1.15-3.03-1.15-5.36v-2.38H-322.73z"/>
			<path d="M-305.61,129.05v3.82c0,2.33-0.39,4.12-1.15,5.36c-0.77,1.25-1.9,1.87-3.4,1.87s-2.64-0.62-3.41-1.87
				c-0.77-1.25-1.15-3.03-1.15-5.36v-14.96c0-2.33,0.38-4.12,1.15-5.36c0.77-1.25,1.9-1.87,3.41-1.87s2.64,0.62,3.4,1.87
				c0.77,1.25,1.15,3.03,1.15,5.36v2.79h-2.89v-3.08c0-1.04-0.14-1.77-0.43-2.2c-0.29-0.42-0.67-0.64-1.15-0.64
				s-0.87,0.21-1.15,0.64c-0.29,0.42-0.43,1.16-0.43,2.2v15.53c0,1.04,0.14,1.77,0.43,2.18c0.29,0.41,0.67,0.62,1.15,0.62
				s0.87-0.21,1.15-0.62c0.29-0.41,0.43-1.14,0.43-2.18v-4.11H-305.61z"/>
			<path d="M-294.88,129.05v3.82c0,2.33-0.39,4.12-1.15,5.36c-0.77,1.25-1.9,1.87-3.4,1.87s-2.64-0.62-3.41-1.87
				c-0.77-1.25-1.15-3.03-1.15-5.36v-14.96c0-2.33,0.38-4.12,1.15-5.36c0.77-1.25,1.9-1.87,3.41-1.87s2.64,0.62,3.4,1.87
				c0.77,1.25,1.15,3.03,1.15,5.36v2.79h-2.89v-3.08c0-1.04-0.14-1.77-0.43-2.2c-0.29-0.42-0.67-0.64-1.15-0.64
				s-0.87,0.21-1.15,0.64c-0.29,0.42-0.43,1.16-0.43,2.2v15.53c0,1.04,0.14,1.77,0.43,2.18c0.29,0.41,0.67,0.62,1.15,0.62
				s0.87-0.21,1.15-0.62c0.29-0.41,0.43-1.14,0.43-2.18v-4.11H-294.88z"/>
		</g>
	</g>
</g>
</svg>
