<?xml version="1.0" encoding="utf-8"?>
<svg version="1.1" xmlns="http://www.w3.org/2000/svg" xmlns:xlink="http://www.w3.org/1999/xlink" x="0px" y="0px"
	 viewBox="0 0 627.18 348.57" style="enable-background:new 0 0 627.18 348.57;" xml:space="preserve">
<style type="text/css">
	.st0{fill:#26397A;}
	.st1{fill:#FFFFFF;}
	.st2{fill:#F4E5CC;}
</style>
<g id="Logo">
	<g>
		<path class="st0" d="M248.92,187.31c12.15,0,23.49,0,35.47,0c0,15.77-0.02,31.17,0.01,46.57c0.01,4.61,0.02,9.23,0.26,13.83
			c0.78,14.73,9.57,23.92,24.27,24.63c10,0.48,20.06,0.38,30.08-0.01c11.75-0.46,20.55-8.46,21.6-21.01
			c1.12-13.35,0.66-26.83,0.87-40.26c0.05-3.37,0.01-6.74,0.01-10.32c11.87,1.76,23.1,3.43,35.18,5.23c0,3.49,0,7.43,0,11.37
			c0.01,11.83-0.2,23.67,0.1,35.5c0.32,12.64,8.17,19.49,21.71,19.57c11.92,0.07,20.11-7.66,20.3-19.76
			c0.24-15.63,0.06-31.27,0.06-47.04c12-2.64,23.64-5.2,35.99-7.91c0,7.37-0.01,14.68,0,21.99c0.01,11.03-0.2,22.07,0.11,33.09
			c0.28,10.02,6.46,17.09,15.97,19.17c10.28,2.25,20.01-0.91,23.31-8.92c2.3-5.59,3.46-11.99,3.58-18.05
			c0.41-21.25,0.05-42.52,0.28-63.78c0.03-2.41,1.25-5.5,3-7.09c10.48-9.51,21.28-18.67,31.89-27.88c0,0.05,0.16,1.11,0.16,2.17
			c0,34.3,0.11,68.6-0.1,102.89c-0.08,13.42-2.81,26.3-10.91,37.45c-9.04,12.45-21.58,18.79-36.72,20.1
			c-17.81,1.53-34.48-1.04-48.1-14.87c-13.29,13.43-29.82,15.08-47.37,14.69c-31.07-0.7-62.17-1.02-93.24-0.67
			c-19.41,0.21-36.33-3.29-46.24-23.5c-7.1,13.28-17.64,21.04-31.24,22.1c-16.1,1.25-32.44,1.25-48.55,0.11
			c-10.32-0.74-18.48-7.19-23.29-16.88c-0.52,0.31-1.07,0.44-1.13,0.69c-3.27,13.48-7.81,17.2-21.72,17.24
			c-31.09,0.09-62.18,0.07-93.27,0.07c-1.74,0-3.49-0.22-5.49-0.35c0-11.7,0-23.03,0-34.95c31.89,0,63.48,0,95.94,0
			c-0.63-18.65,2.5-37.01-5.1-54.35c-6.2-14.15-18.51-20.03-32.95-19.93c-14.08,0.09-28.15,2.33-42.82,3.68
			c-0.36-8.58-0.87-18.7-1.11-28.82c-0.03-1.19,1.21-3.25,2.21-3.51c25.67-6.48,51.4-8.96,76.67,1.44
			c21.9,9.01,32.58,26.95,36.5,49.29c1.9,10.8,1.74,21.97,3.73,32.74c2.32,12.6,11,19.03,23.9,19.32c6.42,0.14,12.84,0.1,19.25,0.09
			c16.76-0.01,26.34-8.85,26.77-25.7c0.45-17.44,0.14-34.9,0.16-52.35C248.92,192.25,248.92,190.08,248.92,187.31z"/>
		<path class="st0" d="M361.66,178.43c0-3.25,0-5.63,0-8.74c45.12,5.01,85.69-5.13,119.83-35.78
			c18.83-16.91,31.83-37.71,39.91-62.44c-8.79-1.17-17.01-2.26-26.49-3.52c20.4-16,39.84-31.25,59.89-46.98
			c8.14,24.84,16,48.82,24.28,74.1c-8.43-4.44-15.6-8.21-23.3-12.27c-17.3,44.66-46.85,77.27-92.34,93.39
			C430.01,188.04,395.95,187.36,361.66,178.43z"/>
		<path class="st0" d="M266.21,153.89c-17.34-0.11-17.34-0.11-17.31-17.28c0.01-4,0.16-8.02-0.03-12.01
			c-0.2-4.18,1.85-5.86,5.73-5.87c8.01-0.01,16.02,0.02,24.03-0.01c3.69-0.01,5.61,1.73,5.63,5.44c0.04,8.21,0,16.42,0.1,24.63
			c0.05,3.89-1.8,5.3-5.54,5.15C274.62,153.76,270.41,153.89,266.21,153.89z"/>
	</g>
</g>
</svg>
